<?xml version="1.0" encoding="UTF-8" standalone="no"?>
<!DOCTYPE svg PUBLIC "-//W3C//DTD SVG 1.1//EN"
 "http://www.w3.org/Graphics/SVG/1.1/DTD/svg11.dtd">
<!-- Generated by graphviz version 2.38.0 (20140413.2041)
 -->
<!-- Title: G Pages: 1 -->
<svg width="492pt" height="196pt"
 viewBox="0.00 0.00 492.17 195.98" xmlns="http://www.w3.org/2000/svg" xmlns:xlink="http://www.w3.org/1999/xlink">
<g id="graph0" class="graph" transform="scale(1 1) rotate(0) translate(7.992 187.992)">
<title>G</title>
<polygon fill="#000000" stroke="none" points="-7.992,7.992 -7.992,-187.992 484.181,-187.992 484.181,7.992 -7.992,7.992"/>
<!-- data&#45;tools -->
<g id="node1" class="node"><title>data&#45;tools</title>
<ellipse fill="none" stroke="#c6c5fe" cx="167.445" cy="-162" rx="51.1914" ry="18"/>
<text text-anchor="middle" x="167.445" y="-158.3" font-family="Arial" font-size="14.00" fill="#c6c5fe">data&#45;tools</text>
</g>
<!-- lib/data&#45;sets -->
<g id="node2" class="node"><title>lib/data&#45;sets</title>
<ellipse fill="none" stroke="#cfffac" cx="60.4446" cy="-18" rx="60.3893" ry="18"/>
<text text-anchor="middle" x="60.4446" y="-14.3" font-family="Arial" font-size="14.00" fill="#cfffac">lib/data&#45;sets</text>
</g>
<!-- data&#45;tools&#45;&gt;lib/data&#45;sets -->
<g id="edge1" class="edge"><title>data&#45;tools&#45;&gt;lib/data&#45;sets</title>
<path fill="none" stroke="#757575" d="M117.017,-158.573C81.1503,-153.892 35.2656,-141.251 11.4446,-108 -3.69952,-86.8606 14.8505,-60.5519 33.3086,-42.0389"/>
<polygon fill="#757575" stroke="#757575" points="35.754,-44.5433 40.5753,-35.1089 30.923,-39.4775 35.754,-44.5433"/>
</g>
<!-- lib/filter -->
<g id="node3" class="node"><title>lib/filter</title>
<ellipse fill="none" stroke="#c6c5fe" cx="60.4446" cy="-90" rx="40.0939" ry="18"/>
<text text-anchor="middle" x="60.4446" y="-86.3" font-family="Arial" font-size="14.00" fill="#c6c5fe">lib/filter</text>
</g>
<!-- data&#45;tools&#45;&gt;lib/filter -->
<g id="edge2" class="edge"><title>data&#45;tools&#45;&gt;lib/filter</title>
<path fill="none" stroke="#757575" d="M144.227,-145.811C128.525,-135.539 107.634,-121.871 90.6408,-110.755"/>
<polygon fill="#757575" stroke="#757575" points="92.4426,-107.751 82.1581,-105.205 88.6103,-113.609 92.4426,-107.751"/>
</g>
<!-- lib/format -->
<g id="node4" class="node"><title>lib/format</title>
<ellipse fill="none" stroke="#cfffac" cx="167.445" cy="-90" rx="48.9926" ry="18"/>
<text text-anchor="middle" x="167.445" y="-86.3" font-family="Arial" font-size="14.00" fill="#cfffac">lib/format</text>
</g>
<!-- data&#45;tools&#45;&gt;lib/format -->
<g id="edge3" class="edge"><title>data&#45;tools&#45;&gt;lib/format</title>
<path fill="none" stroke="#757575" d="M167.445,-143.697C167.445,-135.983 167.445,-126.712 167.445,-118.112"/>
<polygon fill="#757575" stroke="#757575" points="170.945,-118.104 167.445,-108.104 163.945,-118.104 170.945,-118.104"/>
</g>
<!-- lib/strings -->
<g id="node5" class="node"><title>lib/strings</title>
<ellipse fill="none" stroke="#cfffac" cx="284.445" cy="-90" rx="50.0912" ry="18"/>
<text text-anchor="middle" x="284.445" y="-86.3" font-family="Arial" font-size="14.00" fill="#cfffac">lib/strings</text>
</g>
<!-- data&#45;tools&#45;&gt;lib/strings -->
<g id="edge4" class="edge"><title>data&#45;tools&#45;&gt;lib/strings</title>
<path fill="none" stroke="#757575" d="M192.257,-146.155C209.32,-135.946 232.184,-122.267 250.872,-111.086"/>
<polygon fill="#757575" stroke="#757575" points="252.883,-113.962 259.668,-105.824 249.289,-107.955 252.883,-113.962"/>
</g>
<!-- lib/transform -->
<g id="node6" class="node"><title>lib/transform</title>
<ellipse fill="none" stroke="#c6c5fe" cx="414.445" cy="-90" rx="61.99" ry="18"/>
<text text-anchor="middle" x="414.445" y="-86.3" font-family="Arial" font-size="14.00" fill="#c6c5fe">lib/transform</text>
</g>
<!-- data&#45;tools&#45;&gt;lib/transform -->
<g id="edge5" class="edge"><title>data&#45;tools&#45;&gt;lib/transform</title>
<path fill="none" stroke="#757575" d="M206.038,-150.062C247.967,-138.18 315.201,-119.126 361.92,-105.886"/>
<polygon fill="#757575" stroke="#757575" points="362.895,-109.247 371.562,-103.153 360.986,-102.512 362.895,-109.247"/>
</g>
<!-- lib/filter&#45;&gt;lib/data&#45;sets -->
<g id="edge6" class="edge"><title>lib/filter&#45;&gt;lib/data&#45;sets</title>
<path fill="none" stroke="#757575" d="M60.4446,-71.6966C60.4446,-63.9827 60.4446,-54.7125 60.4446,-46.1124"/>
<polygon fill="#757575" stroke="#757575" points="63.9447,-46.1043 60.4446,-36.1043 56.9447,-46.1044 63.9447,-46.1043"/>
</g>
<!-- lib/transform&#45;&gt;lib/data&#45;sets -->
<g id="edge7" class="edge"><title>lib/transform&#45;&gt;lib/data&#45;sets</title>
<path fill="none" stroke="#757575" d="M369.07,-77.7795C360.571,-75.7793 351.75,-73.7709 343.445,-72 267.234,-55.7505 178.899,-39.6379 121.466,-29.5211"/>
<polygon fill="#757575" stroke="#757575" points="121.919,-26.0472 111.464,-27.7649 120.708,-32.9417 121.919,-26.0472"/>
</g>
</g>
</svg>
